<?xml version="1.0" encoding="UTF-8" standalone="no"?>
<!DOCTYPE svg PUBLIC "-//W3C//DTD SVG 1.1//EN"
 "http://www.w3.org/Graphics/SVG/1.1/DTD/svg11.dtd">
<!-- Generated by graphviz version 2.43.0 (0)
 -->
<!-- Title: G Pages: 1 -->
<svg width="480pt" height="209pt"
 viewBox="0.00 0.00 480.00 208.50" xmlns="http://www.w3.org/2000/svg" xmlns:xlink="http://www.w3.org/1999/xlink">
<g id="graph0" class="graph" transform="scale(1 1) rotate(0) translate(4 204.5)">
<title>G</title>
<polygon fill="white" stroke="transparent" points="-4,4 -4,-204.5 476,-204.5 476,4 -4,4"/>
<g id="clust2" class="cluster">
<title>cluster_58e54a4d</title>
<polygon fill="none" stroke="black" stroke-dasharray="1,5" points="64,-117.5 64,-192.5 464,-192.5 464,-117.5 64,-117.5"/>
<text text-anchor="middle" x="264" y="-177.3" font-family="Times,serif" font-size="14.00">File: training</text>
</g>
<!-- Legend -->
<g id="node1" class="node">
<title>Legend</title>
<polygon fill="none" stroke="black" points="1.5,-88.5 1.5,-105.5 326.5,-105.5 326.5,-88.5 1.5,-88.5"/>
<text text-anchor="start" x="98" y="-93.3" font-family="Times,serif" font-size="14.00">Code2flow Legend</text>
<polygon fill="none" stroke="black" points="1.5,-0.5 1.5,-88.5 326.5,-88.5 326.5,-0.5 1.5,-0.5"/>
<polygon fill="none" stroke="black" points="3.5,-65.5 3.5,-86.5 274.5,-86.5 274.5,-65.5 3.5,-65.5"/>
<text text-anchor="start" x="79" y="-72.3" font-family="Times,serif" font-size="14.00">Regular function</text>
<polygon fill="#cccccc" stroke="transparent" points="274.5,-65.5 274.5,-86.5 324.5,-86.5 324.5,-65.5 274.5,-65.5"/>
<polygon fill="none" stroke="black" points="274.5,-65.5 274.5,-86.5 324.5,-86.5 324.5,-65.5 274.5,-65.5"/>
<polygon fill="none" stroke="black" points="3.5,-44.5 3.5,-65.5 274.5,-65.5 274.5,-44.5 3.5,-44.5"/>
<text text-anchor="start" x="17" y="-51.3" font-family="Times,serif" font-size="14.00">Trunk function (nothing calls this)</text>
<polygon fill="#966f33" stroke="transparent" points="274.5,-44.5 274.5,-65.5 324.5,-65.5 324.5,-44.5 274.5,-44.5"/>
<polygon fill="none" stroke="black" points="274.5,-44.5 274.5,-65.5 324.5,-65.5 324.5,-44.5 274.5,-44.5"/>
<polygon fill="none" stroke="black" points="3.5,-23.5 3.5,-44.5 274.5,-44.5 274.5,-23.5 3.5,-23.5"/>
<text text-anchor="start" x="6.5" y="-30.3" font-family="Times,serif" font-size="14.00">Leaf function (this calls nothing else)</text>
<polygon fill="#6db33f" stroke="transparent" points="274.5,-23.5 274.5,-44.5 324.5,-44.5 324.5,-23.5 274.5,-23.5"/>
<polygon fill="none" stroke="black" points="274.5,-23.5 274.5,-44.5 324.5,-44.5 324.5,-23.5 274.5,-23.5"/>
<polygon fill="none" stroke="black" points="3.5,-2.5 3.5,-23.5 274.5,-23.5 274.5,-2.5 3.5,-2.5"/>
<text text-anchor="start" x="92.5" y="-9.3" font-family="Times,serif" font-size="14.00">Function call</text>
<polygon fill="none" stroke="black" points="274.5,-2.5 274.5,-23.5 324.5,-23.5 324.5,-2.5 274.5,-2.5"/>
<text text-anchor="start" x="293" y="-9.3" font-family="Times,serif" font-size="14.00">→</text>
<polygon fill="none" stroke="black" points="2.5,-1.5 2.5,-87.5 325.5,-87.5 325.5,-1.5 2.5,-1.5"/>
<polygon fill="none" stroke="black" points="0,0 0,-107 327,-107 327,0 0,0"/>
</g>
<!-- node_a215f5e7 -->
<g id="node2" class="node">
<title>node_a215f5e7</title>
<g id="a_node2"><a xlink:title="Load a stage&#45;one checkpoint written by the BioEncoder package, as a `BioEncoderModel`.">
<path fill="#6db33f" stroke="black" d="M444,-161.5C444,-161.5 375,-161.5 375,-161.5 369,-161.5 363,-155.5 363,-149.5 363,-149.5 363,-137.5 363,-137.5 363,-131.5 369,-125.5 375,-125.5 375,-125.5 444,-125.5 444,-125.5 450,-125.5 456,-131.5 456,-137.5 456,-137.5 456,-149.5 456,-149.5 456,-155.5 450,-161.5 444,-161.5"/>
<text text-anchor="middle" x="409.5" y="-139.8" font-family="Times,serif" font-size="14.00">172: load()</text>
</a>
</g>
</g>
<!-- node_b44690df -->
<g id="node3" class="node">
<title>node_b44690df</title>
<g id="a_node3"><a xlink:title="Load the checkpoint a BioEncoder config names, as a `BioEncoderModel`.">
<path fill="#966f33" stroke="black" d="M243,-161.5C243,-161.5 84,-161.5 84,-161.5 78,-161.5 72,-155.5 72,-149.5 72,-149.5 72,-137.5 72,-137.5 72,-131.5 78,-125.5 84,-125.5 84,-125.5 243,-125.5 243,-125.5 249,-125.5 255,-131.5 255,-137.5 255,-137.5 255,-149.5 255,-149.5 255,-155.5 249,-161.5 243,-161.5"/>
<text text-anchor="middle" x="163.5" y="-139.8" font-family="Times,serif" font-size="14.00">225: load_from_config()</text>
</a>
</g>
</g>
<!-- node_b44690df&#45;&gt;node_a215f5e7 -->
<g id="edge1" class="edge">
<title>node_b44690df&#45;&gt;node_a215f5e7</title>
<path fill="none" stroke="#cc79a7" stroke-width="2" d="M255.1,-143.5C255.1,-143.5 352.67,-143.5 352.67,-143.5"/>
<polygon fill="#cc79a7" stroke="#cc79a7" stroke-width="2" points="352.67,-147 362.67,-143.5 352.67,-140 352.67,-147"/>
</g>
</g>
</svg>
